{
  "accessors": [
    {
      "bufferView": 2,
      "componentType": 5126,
      "count": 12950,
      "max": [
        279.0311279296875,
        340.325439453125,
        650.7876586914063
      ],
      "min": [
        -278.9912109375,
        52.19670486450195,
        -683.6871337890625
      ],
      "type": "VEC3"
    },
    {
      "bufferView": 2,
      "byteOffset": 155400,
      "componentType": 5126,
      "count": 12950,
      "max": [
        1.0,
        0.9999966621398926,
        0.9999910593032837
      ],
      "min": [
        -1.0,
        -1.0,
        -0.9999986886978149
      ],
      "type": "VEC3"
    },
    {
      "bufferView": 1,
      "componentType": 5126,
      "count": 12950,
      "max": [
        0.9909970164299011,
        0.9929196834564209
      ],
      "min": [
        0.005859553813934326,
        0.005829036235809326
      ],
      "type": "VEC2"
    },
    {
      "bufferView": 1,
      "byteOffset": 103600,
      "componentType": 5126,
      "count": 12950,
      "max": [
        0.0,
        0.0
      ],
      "min": [
        0.0,
        0.0
      ],
      "type": "VEC2"
    },
    {
      "bufferView": 0,
      "componentType": 5125,
      "count": 55374,
      "type": "SCALAR"
    },
    {
      "bufferView": 2,
      "byteOffset": 310800,
      "componentType": 5126,
      "count": 736,
      "max": [
        239.15599060058594,
        324.3822021484375,
        191.0852813720703
      ],
      "min": [
        -239.1560821533203,
        225.8981170654297,
        -326.34088134765625
      ],
      "type": "VEC3"
    },
    {
      "bufferView": 2,
      "byteOffset": 319632,
      "componentType": 5126,
      "count": 736,
      "max": [
        0.9991821050643921,
        0.9937389492988586,
        0.9999899864196777
      ],
      "min": [
        -0.9991897940635681,
        -0.522016704082489,
        -0.9328727722167969
      ],
      "type": "VEC3"
    },
    {
      "bufferView": 1,
      "byteOffset": 207200,
      "componentType": 5126,
      "count": 736,
      "max": [
        0.9927060604095459,
        0.9926755428314209
      ],
      "min": [
        0.006591998040676117,
        0.01779228448867798
      ],
      "type": "VEC2"
    },
    {
      "bufferView": 1,
      "byteOffset": 213088,
      "componentType": 5126,
      "count": 736,
      "max": [
        0.0,
        0.0
      ],
      "min": [
        0.0,
        0.0
      ],
      "type": "VEC2"
    },
    {
      "bufferView": 0,
      "byteOffset": 221496,
      "componentType": 5125,
      "count": 2958,
      "type": "SCALAR"
    },
    {
      "bufferView": 2,
      "byteOffset": 328464,
      "componentType": 5126,
      "count": 1765,
      "max": [
        279.9412841796875,
        152.62330627441406,
        603.5558471679688
      ],
      "min": [
        -280.5088195800781,
        52.825748443603516,
        -551.677734375
      ],
      "type": "VEC3"
    },
    {
      "bufferView": 2,
      "byteOffset": 349644,
      "componentType": 5126,
      "count": 1765,
      "max": [
        0.9999973177909851,
        0.6091249585151672,
        0.881104052066803
      ],
      "min": [
        -0.9998712539672852,
        -0.8493107557296753,
        -0.8462104201316833
      ],
      "type": "VEC3"
    },
    {
      "bufferView": 1,
      "byteOffset": 218976,
      "componentType": 5126,
      "count": 1765,
      "max": [
        0.6284371614456177,
        0.9860835671424866
      ],
      "min": [
        0.002685628831386566,
        0.3002716302871704
      ],
      "type": "VEC2"
    },
    {
      "bufferView": 1,
      "byteOffset": 233096,
      "componentType": 5126,
      "count": 1765,
      "max": [
        0.0,
        0.0
      ],
      "min": [
        0.0,
        0.0
      ],
      "type": "VEC2"
    },
    {
      "bufferView": 0,
      "byteOffset": 233328,
      "componentType": 5125,
      "count": 6744,
      "type": "SCALAR"
    },
    {
      "bufferView": 2,
      "byteOffset": 370824,
      "componentType": 5126,
      "count": 1112,
      "max": [
        215.3084259033203,
        308.2132873535156,
        644.056396484375
      ],
      "min": [
        -215.3090057373047,
        118.1630630493164,
        -679.97900390625
      ],
      "type": "VEC3"
    },
    {
      "bufferView": 2,
      "byteOffset": 384168,
      "componentType": 5126,
      "count": 1112,
      "max": [
        0.9962199330329895,
        0.9993591904640198,
        0.9981926083564758
      ],
      "min": [
        -0.9962196946144104,
        -0.9938362836837769,
        -0.9951356649398804
      ],
      "type": "VEC3"
    },
    {
      "bufferView": 1,
      "byteOffset": 247216,
      "componentType": 5126,
      "count": 1112,
      "max": [
        0.9941709637641907,
        0.9924314022064209
      ],
      "min": [
        0.006103701889514923,
        0.005829036235809326
      ],
      "type": "VEC2"
    },
    {
      "bufferView": 1,
      "byteOffset": 256112,
      "componentType": 5126,
      "count": 1112,
      "max": [
        0.0,
        0.0
      ],
      "min": [
        0.0,
        0.0
      ],
      "type": "VEC2"
    },
    {
      "bufferView": 0,
      "byteOffset": 260304,
      "componentType": 5125,
      "count": 4320,
      "type": "SCALAR"
    },
    {
      "bufferView": 2,
      "byteOffset": 397512,
      "componentType": 5126,
      "count": 8846,
      "max": [
        329.3534240722656,
        326.3162536621094,
        626.2437133789063
      ],
      "min": [
        -329.2007141113281,
        38.67726516723633,
        -679.9827880859375
      ],
      "type": "VEC3"
    },
    {
      "bufferView": 2,
      "byteOffset": 503664,
      "componentType": 5126,
      "count": 8846,
      "max": [
        1.0,
        1.0,
        0.9999977946281433
      ],
      "min": [
        -1.0,
        -1.0,
        -0.999990701675415
      ],
      "type": "VEC3"
    },
    {
      "bufferView": 1,
      "byteOffset": 265008,
      "componentType": 5126,
      "count": 8846,
      "max": [
        121.34182739257813,
        149.781494140625
      ],
      "min": [
        -120.706787109375,
        -148.58157348632813
      ],
      "type": "VEC2"
    },
    {
      "bufferView": 1,
      "byteOffset": 335776,
      "componentType": 5126,
      "count": 8846,
      "max": [
        0.0,
        0.0
      ],
      "min": [
        0.0,
        0.0
      ],
      "type": "VEC2"
    },
    {
      "bufferView": 0,
      "byteOffset": 277584,
      "componentType": 5125,
      "count": 37425,
      "type": "SCALAR"
    },
    {
      "bufferView": 2,
      "byteOffset": 609816,
      "componentType": 5126,
      "count": 144,
      "max": [
        214.2916259765625,
        301.97808837890625,
        577.4597778320313
      ],
      "min": [
        -214.3026580810547,
        54.48757553100586,
        -622.45556640625
      ],
      "type": "VEC3"
    },
    {
      "bufferView": 2,
      "byteOffset": 611544,
      "componentType": 5126,
      "count": 144,
      "max": [
        0.9269763827323914,
        0.2527835965156555,
        0.9002723097801208
      ],
      "min": [
        -0.9220342040061951,
        -0.7225022912025452,
        -0.9533630609512329
      ],
      "type": "VEC3"
    },
    {
      "bufferView": 3,
      "componentType": 5126,
      "count": 144,
      "max": [
        0.9945574402809143,
        0.6291764974594116,
        0.9035971760749817,
        1.0
      ],
      "min": [
        -1.0,
        -0.35791724920272827,
        -0.8848755955696106,
        -1.0
      ],
      "type": "VEC4"
    },
    {
      "bufferView": 1,
      "byteOffset": 406544,
      "componentType": 5126,
      "count": 144,
      "max": [
        58.323211669921875,
        47.50635528564453
      ],
      "min": [
        -57.62543487548828,
        -46.032493591308594
      ],
      "type": "VEC2"
    },
    {
      "bufferView": 1,
      "byteOffset": 407696,
      "componentType": 5126,
      "count": 144,
      "max": [
        0.0,
        0.0
      ],
      "min": [
        0.0,
        0.0
      ],
      "type": "VEC2"
    },
    {
      "bufferView": 0,
      "byteOffset": 427284,
      "componentType": 5125,
      "count": 372,
      "type": "SCALAR"
    },
    {
      "bufferView": 2,
      "byteOffset": 613272,
      "componentType": 5126,
      "count": 528,
      "max": [
        239.5549774169922,
        110.59168243408203,
        503.0218505859375
      ],
      "min": [
        -239.54119873046875,
        35.663726806640625,
        -466.26397705078125
      ],
      "type": "VEC3"
    },
    {
      "bufferView": 2,
      "byteOffset": 619608,
      "componentType": 5126,
      "count": 528,
      "max": [
        1.0,
        0.9999632835388184,
        0.9999526739120483
      ],
      "min": [
        -1.0,
        -1.0,
        -0.9999144077301025
      ],
      "type": "VEC3"
    },
    {
      "bufferView": 3,
      "byteOffset": 2304,
      "componentType": 5126,
      "count": 528,
      "max": [
        1.0,
        0.9999979734420776,
        0.9999999403953552,
        1.0
      ],
      "min": [
        -1.0,
        -0.9999979734420776,
        -0.9999949336051941,
        -1.0
      ],
      "type": "VEC4"
    },
    {
      "bufferView": 1,
      "byteOffset": 408848,
      "componentType": 5126,
      "count": 528,
      "max": [
        0.9931944012641907,
        0.9799798727035522
      ],
      "min": [
        0.3088473081588745,
        0.006073176860809326
      ],
      "type": "VEC2"
    },
    {
      "bufferView": 1,
      "byteOffset": 413072,
      "componentType": 5126,
      "count": 528,
      "max": [
        0.0,
        0.0
      ],
      "min": [
        0.0,
        0.0
      ],
      "type": "VEC2"
    },
    {
      "bufferView": 0,
      "byteOffset": 428772,
      "componentType": 5125,
      "count": 1794,
      "type": "SCALAR"
    },
    {
      "bufferView": 2,
      "byteOffset": 625944,
      "componentType": 5126,
      "count": 40,
      "max": [
        72.75049591064453,
        182.93255615234375,
        634.0771484375
      ],
      "min": [
        -70.56117248535156,
        146.85183715820313,
        631.4733276367188
      ],
      "type": "VEC3"
    },
    {
      "bufferView": 2,
      "byteOffset": 626424,
      "componentType": 5126,
      "count": 40,
      "max": [
        1.0,
        0.9451594948768616,
        0.8844336271286011
      ],
      "min": [
        -1.0,
        -0.9457722306251526,
        -0.9999295473098755
      ],
      "type": "VEC3"
    },
    {
      "bufferView": 1,
      "byteOffset": 417296,
      "componentType": 5126,
      "count": 40,
      "max": [
        0.9956358671188354,
        0.5085299015045166
      ],
      "min": [
        0.008301034569740295,
        0.01828056573867798
      ],
      "type": "VEC2"
    },
    {
      "bufferView": 1,
      "byteOffset": 417616,
      "componentType": 5126,
      "count": 40,
      "max": [
        0.0,
        0.0
      ],
      "min": [
        0.0,
        0.0
      ],
      "type": "VEC2"
    },
    {
      "bufferView": 0,
      "byteOffset": 435948,
      "componentType": 5125,
      "count": 108,
      "type": "SCALAR"
    },
    {
      "bufferView": 2,
      "byteOffset": 626904,
      "componentType": 5126,
      "count": 211,
      "max": [
        214.4663848876953,
        294.9455261230469,
        622.78955078125
      ],
      "min": [
        -214.28858947753906,
        200.55050659179688,
        -296.2123107910156
      ],
      "type": "VEC3"
    },
    {
      "bufferView": 2,
      "byteOffset": 629436,
      "componentType": 5126,
      "count": 211,
      "max": [
        0.9942867159843445,
        0.6212963461875916,
        0.9984717965126038
      ],
      "min": [
        -0.9934765696525574,
        -0.07564452290534973,
        0.018815521150827408
      ],
      "type": "VEC3"
    },
    {
      "bufferView": 3,
      "byteOffset": 10752,
      "componentType": 5126,
      "count": 211,
      "max": [
        0.9998548030853271,
        0.9999897480010986,
        0.9998070597648621,
        1.0
      ],
      "min": [
        -0.7826495170593262,
        -0.999134361743927,
        -0.2385428547859192,
        -1.0
      ],
      "type": "VEC4"
    },
    {
      "bufferView": 1,
      "byteOffset": 417936,
      "componentType": 5126,
      "count": 211,
      "max": [
        52.223793029785156,
        78.69320678710938
      ],
      "min": [
        -50.54796600341797,
        -77.8619384765625
      ],
      "type": "VEC2"
    },
    {
      "bufferView": 1,
      "byteOffset": 419624,
      "componentType": 5126,
      "count": 211,
      "max": [
        0.0,
        0.0
      ],
      "min": [
        0.0,
        0.0
      ],
      "type": "VEC2"
    },
    {
      "bufferView": 0,
      "byteOffset": 436380,
      "componentType": 5125,
      "count": 432,
      "type": "SCALAR"
    },
    {
      "bufferView": 2,
      "byteOffset": 631968,
      "componentType": 5126,
      "count": 736,
      "max": [
        238.9168243408203,
        324.08917236328125,
        190.89419555664063
      ],
      "min": [
        -238.9169158935547,
        225.7035675048828,
        -326.0145568847656
      ],
      "type": "VEC3"
    },
    {
      "bufferView": 2,
      "byteOffset": 640800,
      "componentType": 5126,
      "count": 736,
      "max": [
        0.9991820454597473,
        0.9937392473220825,
        0.9999899864196777
      ],
      "min": [
        -0.9991896152496338,
        -0.522031307220459,
        -0.9328702688217163
      ],
      "type": "VEC3"
    },
    {
      "bufferView": 1,
      "byteOffset": 421312,
      "componentType": 5126,
      "count": 736,
      "max": [
        0.9927060604095459,
        0.9926755428314209
      ],
      "min": [
        0.006591998040676117,
        0.01779228448867798
      ],
      "type": "VEC2"
    },
    {
      "bufferView": 1,
      "byteOffset": 427200,
      "componentType": 5126,
      "count": 736,
      "max": [
        0.0,
        0.0
      ],
      "min": [
        0.0,
        0.0
      ],
      "type": "VEC2"
    },
    {
      "bufferView": 0,
      "byteOffset": 438108,
      "componentType": 5125,
      "count": 2958,
      "type": "SCALAR"
    },
    {
      "bufferView": 2,
      "byteOffset": 649632,
      "componentType": 5126,
      "count": 1875,
      "max": [
        11.084861755371094,
        54.209136962890625,
        63.22306442260742
      ],
      "min": [
        -26.60239601135254,
        -24.805238723754883,
        21.164302825927734
      ],
      "type": "VEC3"
    },
    {
      "bufferView": 2,
      "byteOffset": 672132,
      "componentType": 5126,
      "count": 1875,
      "max": [
        0.9999342560768127,
        0.9999755620956421,
        0.9995713233947754
      ],
      "min": [
        -0.9999998211860657,
        -0.9999982714653015,
        -0.9998349547386169
      ],
      "type": "VEC3"
    },
    {
      "bufferView": 3,
      "byteOffset": 14128,
      "componentType": 5126,
      "count": 1875,
      "max": [
        0.9999995827674866,
        0.9992403984069824,
        0.9994373917579651,
        1.0
      ],
      "min": [
        -0.9999973773956299,
        -0.9893961548805237,
        -0.9970744848251343,
        -1.0
      ],
      "type": "VEC4"
    },
    {
      "bufferView": 1,
      "byteOffset": 433088,
      "componentType": 5126,
      "count": 1875,
      "max": [
        0.9980773329734802,
        0.9926755428314209
      ],
      "min": [
        0.00317392498254776,
        0.0014343857765197754
      ],
      "type": "VEC2"
    },
    {
      "bufferView": 1,
      "byteOffset": 448088,
      "componentType": 5126,
      "count": 1875,
      "max": [
        0.0,
        0.0
      ],
      "min": [
        0.0,
        0.0
      ],
      "type": "VEC2"
    },
    {
      "bufferView": 0,
      "byteOffset": 449940,
      "componentType": 5125,
      "count": 7359,
      "type": "SCALAR"
    },
    {
      "bufferView": 2,
      "byteOffset": 694632,
      "componentType": 5126,
      "count": 160,
      "max": [
        -26.601346969604492,
        27.243846893310547,
        50.01811981201172
      ],
      "min": [
        -26.627883911132813,
        6.141333103179932,
        39.94208908081055
      ],
      "type": "VEC3"
    },
    {
      "bufferView": 2,
      "byteOffset": 696552,
      "componentType": 5126,
      "count": 160,
      "max": [
        -0.9999997019767761,
        0.0005917854723520577,
        0.0006055532721802592
      ],
      "min": [
        -0.9999999403953552,
        0.0001607444282853976,
        0.00030813043122179806
      ],
      "type": "VEC3"
    },
    {
      "bufferView": 1,
      "byteOffset": 463088,
      "componentType": 5126,
      "count": 160,
      "max": [
        0.5293130278587341,
        0.9956053495407104
      ],
      "min": [
        0.03100680559873581,
        0.5270851850509644
      ],
      "type": "VEC2"
    },
    {
      "bufferView": 1,
      "byteOffset": 464368,
      "componentType": 5126,
      "count": 160,
      "max": [
        0.0,
        0.0
      ],
      "min": [
        0.0,
        0.0
      ],
      "type": "VEC2"
    },
    {
      "bufferView": 0,
      "byteOffset": 479376,
      "componentType": 5125,
      "count": 420,
      "type": "SCALAR"
    },
    {
      "bufferView": 2,
      "byteOffset": 698472,
      "componentType": 5126,
      "count": 182,
      "max": [
        1.6171742677688599,
        55.76812744140625,
        55.74664306640625
      ],
      "min": [
        -34.6724739074707,
        -55.68815612792969,
        -55.15953826904297
      ],
      "type": "VEC3"
    },
    {
      "bufferView": 2,
      "byteOffset": 700656,
      "componentType": 5126,
      "count": 182,
      "max": [
        2.1326301066437736e-05,
        0.9988657832145691,
        0.9989286661148071
      ],
      "min": [
        -1.0,
        -0.9988658428192139,
        -0.998936116695404
      ],
      "type": "VEC3"
    },
    {
      "bufferView": 1,
      "byteOffset": 465648,
      "componentType": 5126,
      "count": 182,
      "max": [
        0.9929502010345459,
        0.6611224412918091
      ],
      "min": [
        0.6462599635124207,
        0.36082035303115845
      ],
      "type": "VEC2"
    },
    {
      "bufferView": 1,
      "byteOffset": 467104,
      "componentType": 5126,
      "count": 182,
      "max": [
        0.9922177791595459,
        0.9916989803314209
      ],
      "min": [
        0.0,
        0.0
      ],
      "type": "VEC2"
    },
    {
      "bufferView": 0,
      "byteOffset": 481056,
      "componentType": 5125,
      "count": 558,
      "type": "SCALAR"
    },
    {
      "bufferView": 2,
      "byteOffset": 702840,
      "componentType": 5126,
      "count": 1875,
      "max": [
        26.602394104003906,
        54.903602600097656,
        63.12404251098633
      ],
      "min": [
        -11.084859848022461,
        -23.62024688720703,
        20.267290115356445
      ],
      "type": "VEC3"
    },
    {
      "bufferView": 2,
      "byteOffset": 725340,
      "componentType": 5126,
      "count": 1875,
      "max": [
        0.9999998211860657,
        0.9999783039093018,
        0.9999716281890869
      ],
      "min": [
        -0.9999342560768127,
        -0.9998844861984253,
        -0.999950110912323
      ],
      "type": "VEC3"
    },
    {
      "bufferView": 3,
      "byteOffset": 44128,
      "componentType": 5126,
      "count": 1875,
      "max": [
        0.9999973773956299,
        0.9958720803260803,
        0.9982059597969055,
        1.0
      ],
      "min": [
        -0.9999996423721313,
        -0.9987971782684326,
        -0.9983265399932861,
        -1.0
      ],
      "type": "VEC4"
    },
    {
      "bufferView": 1,
      "byteOffset": 468560,
      "componentType": 5126,
      "count": 1875,
      "max": [
        0.9980773329734802,
        0.9926755428314209
      ],
      "min": [
        0.00317392498254776,
        0.0014343857765197754
      ],
      "type": "VEC2"
    },
    {
      "bufferView": 1,
      "byteOffset": 483560,
      "componentType": 5126,
      "count": 1875,
      "max": [
        0.0,
        0.0
      ],
      "min": [
        0.0,
        0.0
      ],
      "type": "VEC2"
    },
    {
      "bufferView": 0,
      "byteOffset": 483288,
      "componentType": 5125,
      "count": 7359,
      "type": "SCALAR"
    },
    {
      "bufferView": 2,
      "byteOffset": 747840,
      "componentType": 5126,
      "count": 160,
      "max": [
        26.627880096435547,
        26.057300567626953,
        50.55723190307617
      ],
      "min": [
        26.60134506225586,
        6.625895023345947,
        38.70062255859375
      ],
      "type": "VEC3"
    },
    {
      "bufferView": 2,
      "byteOffset": 749760,
      "componentType": 5126,
      "count": 160,
      "max": [
        1.0,
        0.0001727179769659415,
        0.0008124465239234269
      ],
      "min": [
        0.9999997019767761,
        -0.0001940971560543403,
        0.00040328496834263206
      ],
      "type": "VEC3"
    },
    {
      "bufferView": 1,
      "byteOffset": 498560,
      "componentType": 5126,
      "count": 160,
      "max": [
        0.5293130278587341,
        0.9956053495407104
      ],
      "min": [
        0.03100680559873581,
        0.5270851850509644
      ],
      "type": "VEC2"
    },
    {
      "bufferView": 1,
      "byteOffset": 499840,
      "componentType": 5126,
      "count": 160,
      "max": [
        0.0,
        0.0
      ],
      "min": [
        0.0,
        0.0
      ],
      "type": "VEC2"
    },
    {
      "bufferView": 0,
      "byteOffset": 512724,
      "componentType": 5125,
      "count": 420,
      "type": "SCALAR"
    },
    {
      "bufferView": 2,
      "byteOffset": 751680,
      "componentType": 5126,
      "count": 182,
      "max": [
        34.6724739074707,
        55.82520294189453,
        55.82026672363281
      ],
      "min": [
        -1.6171693801879883,
        -55.51185607910156,
        -55.33656311035156
      ],
      "type": "VEC3"
    },
    {
      "bufferView": 2,
      "byteOffset": 753864,
      "componentType": 5126,
      "count": 182,
      "max": [
        1.0,
        0.9996393918991089,
        0.9997904300689697
      ],
      "min": [
        -2.1263453163555823e-05,
        -0.9974788427352905,
        -0.9997367262840271
      ],
      "type": "VEC3"
    },
    {
      "bufferView": 1,
      "byteOffset": 501120,
      "componentType": 5126,
      "count": 182,
      "max": [
        0.9929502010345459,
        0.6611224412918091
      ],
      "min": [
        0.6462599635124207,
        0.36082035303115845
      ],
      "type": "VEC2"
    },
    {
      "bufferView": 1,
      "byteOffset": 502576,
      "componentType": 5126,
      "count": 182,
      "max": [
        0.9922177791595459,
        0.9916989803314209
      ],
      "min": [
        0.0,
        0.0
      ],
      "type": "VEC2"
    },
    {
      "bufferView": 0,
      "byteOffset": 514404,
      "componentType": 5125,
      "count": 558,
      "type": "SCALAR"
    },
    {
      "bufferView": 2,
      "byteOffset": 756048,
      "componentType": 5126,
      "count": 1875,
      "max": [
        11.084861755371094,
        55.40898513793945,
        -19.49500274658203
      ],
      "min": [
        -26.60239601135254,
        -22.62014389038086,
        -63.09375762939453
      ],
      "type": "VEC3"
    },
    {
      "bufferView": 2,
      "byteOffset": 778548,
      "componentType": 5126,
      "count": 1875,
      "max": [
        0.9999342560768127,
        0.9999439716339111,
        0.9999530911445618
      ],
      "min": [
        -0.9999998807907104,
        -0.9994335770606995,
        -0.9999392628669739
      ],
      "type": "VEC3"
    },
    {
      "bufferView": 3,
      "byteOffset": 74128,
      "componentType": 5126,
      "count": 1875,
      "max": [
        0.9999996423721313,
        0.9971693158149719,
        0.9989409446716309,
        1.0
      ],
      "min": [
        -0.9999973773956299,
        -0.9980372786521912,
        -0.99740070104599,
        -1.0
      ],
      "type": "VEC4"
    },
    {
      "bufferView": 1,
      "byteOffset": 504032,
      "componentType": 5126,
      "count": 1875,
      "max": [
        0.9980773329734802,
        0.9926755428314209
      ],
      "min": [
        0.00317392498254776,
        0.0014343857765197754
      ],
      "type": "VEC2"
    },
    {
      "bufferView": 1,
      "byteOffset": 519032,
      "componentType": 5126,
      "count": 1875,
      "max": [
        0.0,
        0.0
      ],
      "min": [
        0.0,
        0.0
      ],
      "type": "VEC2"
    },
    {
      "bufferView": 0,
      "byteOffset": 516636,
      "componentType": 5125,
      "count": 7359,
      "type": "SCALAR"
    },
    {
      "bufferView": 2,
      "byteOffset": 801048,
      "componentType": 5126,
      "count": 160,
      "max": [
        -26.601346969604492,
        26.787857055664063,
        -38.23872756958008
      ],
      "min": [
        -26.627883911132813,
        7.519286155700684,
        -50.39889907836914
      ],
      "type": "VEC3"
    },
    {
      "bufferView": 2,
      "byteOffset": 802968,
      "componentType": 5126,
      "count": 160,
      "max": [
        -0.9999997019767761,
        0.0001818451564759016,
        -0.00039778801146894693
      ],
      "min": [
        -0.9999999403953552,
        -0.00018139768508262932,
        -0.0008124367450363934
      ],
      "type": "VEC3"
    },
    {
      "bufferView": 1,
      "byteOffset": 534032,
      "componentType": 5126,
      "count": 160,
      "max": [
        0.5293130278587341,
        0.9956053495407104
      ],
      "min": [
        0.03100680559873581,
        0.5270851850509644
      ],
      "type": "VEC2"
    },
    {
      "bufferView": 1,
      "byteOffset": 535312,
      "componentType": 5126,
      "count": 160,
      "max": [
        0.0,
        0.0
      ],
      "min": [
        0.0,
        0.0
      ],
      "type": "VEC2"
    },
    {
      "bufferView": 0,
      "byteOffset": 546072,
      "componentType": 5125,
      "count": 420,
      "type": "SCALAR"
    },
    {
      "bufferView": 2,
      "byteOffset": 804888,
      "componentType": 5126,
      "count": 182,
      "max": [
        1.6171742677688599,
        55.8431282043457,
        55.35799789428711
      ],
      "min": [
        -34.6724739074707,
        -55.52082061767578,
        -55.835784912109375
      ],
      "type": "VEC3"
    },
    {
      "bufferView": 2,
      "byteOffset": 807072,
      "componentType": 5126,
      "count": 182,
      "max": [
        2.112199945258908e-05,
        0.9999662041664124,
        0.999990701675415
      ],
      "min": [
        -1.0,
        -0.9959834814071655,
        -0.9999983906745911
      ],
      "type": "VEC3"
    },
    {
      "bufferView": 1,
      "byteOffset": 536592,
      "componentType": 5126,
      "count": 182,
      "max": [
        0.9929502010345459,
        0.6611224412918091
      ],
      "min": [
        0.6462599635124207,
        0.36082035303115845
      ],
      "type": "VEC2"
    },
    {
      "bufferView": 1,
      "byteOffset": 538048,
      "componentType": 5126,
      "count": 182,
      "max": [
        0.9922177791595459,
        0.9916989803314209
      ],
      "min": [
        0.0,
        0.0
      ],
      "type": "VEC2"
    },
    {
      "bufferView": 0,
      "byteOffset": 547752,
      "componentType": 5125,
      "count": 558,
      "type": "SCALAR"
    },
    {
      "bufferView": 2,
      "byteOffset": 809256,
      "componentType": 5126,
      "count": 1875,
      "max": [
        26.602394104003906,
        55.934017181396484,
        -18.536487579345703
      ],
      "min": [
        -11.084859848022461,
        -21.38424301147461,
        -63.0373649597168
      ],
      "type": "VEC3"
    },
    {
      "bufferView": 2,
      "byteOffset": 831756,
      "componentType": 5126,
      "count": 1875,
      "max": [
        0.9999998211860657,
        0.9999567270278931,
        0.9999920129776001
      ],
      "min": [
        -0.9999343156814575,
        -0.9991798996925354,
        -0.9999758005142212
      ],
      "type": "VEC3"
    },
    {
      "bufferView": 3,
      "byteOffset": 104128,
      "componentType": 5126,
      "count": 1875,
      "max": [
        0.9999973773956299,
        0.9966421127319336,
        0.9925883412361145,
        1.0
      ],
      "min": [
        -0.9999996423721313,
        -0.9964533448219299,
        -0.9991705417633057,
        -1.0
      ],
      "type": "VEC4"
    },
    {
      "bufferView": 1,
      "byteOffset": 539504,
      "componentType": 5126,
      "count": 1875,
      "max": [
        0.9980773329734802,
        0.9926755428314209
      ],
      "min": [
        0.00317392498254776,
        0.0014343857765197754
      ],
      "type": "VEC2"
    },
    {
      "bufferView": 1,
      "byteOffset": 554504,
      "componentType": 5126,
      "count": 1875,
      "max": [
        0.0,
        0.0
      ],
      "min": [
        0.0,
        0.0
      ],
      "type": "VEC2"
    },
    {
      "bufferView": 0,
      "byteOffset": 549984,
      "componentType": 5125,
      "count": 7359,
      "type": "SCALAR"
    },
    {
      "bufferView": 2,
      "byteOffset": 854256,
      "componentType": 5126,
      "count": 160,
      "max": [
        26.627880096435547,
        29.91284942626953,
        -38.26334762573242
      ],
      "min": [
        26.60134506225586,
        9.108458518981934,
        -49.292747497558594
      ],
      "type": "VEC3"
    },
    {
      "bufferView": 2,
      "byteOffset": 856176,
      "componentType": 5126,
      "count": 160,
      "max": [
        0.9999999403953552,
        0.0006151942652650177,
        -0.0002899296523537487
      ],
      "min": [
        0.9999997615814209,
        0.00018853099027182907,
        -0.0005969968042336404
      ],
      "type": "VEC3"
    },
    {
      "bufferView": 1,
      "byteOffset": 569504,
      "componentType": 5126,
      "count": 160,
      "max": [
        0.5293130278587341,
        0.9956053495407104
      ],
      "min": [
        0.03100680559873581,
        0.5270851850509644
      ],
      "type": "VEC2"
    },
    {
      "bufferView": 1,
      "byteOffset": 570784,
      "componentType": 5126,
      "count": 160,
      "max": [
        0.0,
        0.0
      ],
      "min": [
        0.0,
        0.0
      ],
      "type": "VEC2"
    },
    {
      "bufferView": 0,
      "byteOffset": 579420,
      "componentType": 5125,
      "count": 420,
      "type": "SCALAR"
    },
    {
      "bufferView": 2,
      "byteOffset": 858096,
      "componentType": 5126,
      "count": 182,
      "max": [
        34.6724739074707,
        55.83687973022461,
        55.216453552246094
      ],
      "min": [
        -1.6171693801879883,
        -55.720794677734375,
        -55.79850769042969
      ],
      "type": "VEC3"
    },
    {
      "bufferView": 2,
      "byteOffset": 860280,
      "componentType": 5126,
      "count": 182,
      "max": [
        1.0,
        0.9998725652694702,
        0.9998476505279541
      ],
      "min": [
        -2.1289186406647786e-05,
        -0.999872624874115,
        -0.9998503923416138
      ],
      "type": "VEC3"
    },
    {
      "bufferView": 1,
      "byteOffset": 572064,
      "componentType": 5126,
      "count": 182,
      "max": [
        0.9929502010345459,
        0.6611224412918091
      ],
      "min": [
        0.6462599635124207,
        0.36082035303115845
      ],
      "type": "VEC2"
    },
    {
      "bufferView": 1,
      "byteOffset": 573520,
      "componentType": 5126,
      "count": 182,
      "max": [
        0.9922177791595459,
        0.9916989803314209
      ],
      "min": [
        0.0,
        0.0
      ],
      "type": "VEC2"
    },
    {
      "bufferView": 0,
      "byteOffset": 581100,
      "componentType": 5125,
      "count": 558,
      "type": "SCALAR"
    },
    {
      "bufferView": 2,
      "byteOffset": 862464,
      "componentType": 5126,
      "count": 21519,
      "max": [
        326.77392578125,
        335.5487365722656,
        645.9205932617188
      ],
      "min": [
        -326.6213073730469,
        38.67485046386719,
        -679.3748779296875
      ],
      "type": "VEC3"
    },
    {
      "bufferView": 2,
      "byteOffset": 1120692,
      "componentType": 5126,
      "count": 21519,
      "max": [
        1.0,
        1.0,
        0.9999982118606567
      ],
      "min": [
        -1.0,
        -1.0,
        -1.0
      ],
      "type": "VEC3"
    },
    {
      "bufferView": 1,
      "byteOffset": 574976,
      "componentType": 5126,
      "count": 21519,
      "max": [
        0.9956358671188354,
        0.9968260526657104
      ],
      "min": [
        0.0019531846046447754,
        0.0024109482765197754
      ],
      "type": "VEC2"
    },
    {
      "bufferView": 1,
      "byteOffset": 747128,
      "componentType": 5126,
      "count": 21519,
      "max": [
        0.999542236328125,
        0.9990234375
      ],
      "min": [
        0.0,
        0.0
      ],
      "type": "VEC2"
    },
    {
      "bufferView": 0,
      "byteOffset": 583332,
      "componentType": 5125,
      "count": 67311,
      "type": "SCALAR"
    },
    {
      "bufferView": 2,
      "byteOffset": 1378920,
      "componentType": 5126,
      "count": 3191,
      "max": [
        8.045145988464355,
        77.6908187866211,
        77.42401123046875
      ],
      "min": [
        -34.67640686035156,
        -77.67508697509766,
        -77.64109802246094
      ],
      "type": "VEC3"
    },
    {
      "bufferView": 2,
      "byteOffset": 1417212,
      "componentType": 5126,
      "count": 3191,
      "max": [
        1.0,
        1.0,
        0.9999992251396179
      ],
      "min": [
        -1.0,
        -1.0,
        -0.9999953508377075
      ],
      "type": "VEC3"
    },
    {
      "bufferView": 1,
      "byteOffset": 919280,
      "componentType": 5126,
      "count": 3191,
      "max": [
        0.9956358671188354,
        0.9960936307907104
      ],
      "min": [
        0.6428418755531311,
        0.6679586172103882
      ],
      "type": "VEC2"
    },
    {
      "bufferView": 0,
      "byteOffset": 852576,
      "componentType": 5125,
      "count": 11700,
      "type": "SCALAR"
    },
    {
      "bufferView": 2,
      "byteOffset": 1455504,
      "componentType": 5126,
      "count": 733,
      "max": [
        35.09820556640625,
        99.67842102050781,
        99.41217041015625
      ],
      "min": [
        -35.147254943847656,
        -99.66265869140625,
        -99.57723236083984
      ],
      "type": "VEC3"
    },
    {
      "bufferView": 2,
      "byteOffset": 1464300,
      "componentType": 5126,
      "count": 733,
      "max": [
        1.0,
        0.9910659193992615,
        0.997285783290863
      ],
      "min": [
        -0.989447832107544,
        -0.9969929456710815,
        -0.9967893958091736
      ],
      "type": "VEC3"
    },
    {
      "bufferView": 3,
      "byteOffset": 134128,
      "componentType": 5126,
      "count": 733,
      "max": [
        0.6071617007255554,
        0.9999610185623169,
        0.9999997019767761,
        1.0
      ],
      "min": [
        -0.6062685251235962,
        -0.9999713897705078,
        -0.9999995231628418,
        -1.0
      ],
      "type": "VEC4"
    },
    {
      "bufferView": 1,
      "byteOffset": 944808,
      "componentType": 5126,
      "count": 733,
      "max": [
        0.9985656142234802,
        0.9990234375
      ],
      "min": [
        0.0012207403779029846,
        0.0016785264015197754
      ],
      "type": "VEC2"
    },
    {
      "bufferView": 0,
      "byteOffset": 899376,
      "componentType": 5125,
      "count": 3072,
      "type": "SCALAR"
    },
    {
      "bufferView": 2,
      "byteOffset": 1473096,
      "componentType": 5126,
      "count": 7,
      "max": [
        7.800750255584717,
        63.595211029052734,
        73.18367004394531
      ],
      "min": [
        7.737330436706543,
        -63.60295486450195,
        -73.3899917602539
      ],
      "type": "VEC3"
    },
    {
      "bufferView": 2,
      "byteOffset": 1473180,
      "componentType": 5126,
      "count": 7,
      "max": [
        -0.9999999403953552,
        2.807576038321713e-06,
        -0.00043263204861432314
      ],
      "min": [
        -1.0,
        2.6376667392469244e-06,
        -0.0004328073118813336
      ],
      "type": "VEC3"
    },
    {
      "bufferView": 1,
      "byteOffset": 950672,
      "componentType": 5126,
      "count": 7,
      "max": [
        0.9988097548484802,
        0.6608783006668091
      ],
      "min": [
        0.9487594366073608,
        0.617664098739624
      ],
      "type": "VEC2"
    },
    {
      "bufferView": 0,
      "byteOffset": 911664,
      "componentType": 5125,
      "count": 18,
      "type": "SCALAR"
    },
    {
      "bufferView": 2,
      "byteOffset": 1473264,
      "componentType": 5126,
      "count": 3191,
      "max": [
        34.676414489746094,
        77.6908187866211,
        77.42401123046875
      ],
      "min": [
        -8.045150756835938,
        -77.67508697509766,
        -77.64109802246094
      ],
      "type": "VEC3"
    },
    {
      "bufferView": 2,
      "byteOffset": 1511556,
      "componentType": 5126,
      "count": 3191,
      "max": [
        1.0,
        1.0,
        0.9999992251396179
      ],
      "min": [
        -1.0,
        -1.0,
        -0.9999953508377075
      ],
      "type": "VEC3"
    },
    {
      "bufferView": 1,
      "byteOffset": 950728,
      "componentType": 5126,
      "count": 3191,
      "max": [
        0.9956358671188354,
        0.9960936307907104
      ],
      "min": [
        0.6428418755531311,
        0.6679586172103882
      ],
      "type": "VEC2"
    },
    {
      "bufferView": 0,
      "byteOffset": 911736,
      "componentType": 5125,
      "count": 11700,
      "type": "SCALAR"
    },
    {
      "bufferView": 2,
      "byteOffset": 1549848,
      "componentType": 5126,
      "count": 733,
      "max": [
        35.14726638793945,
        99.67842102050781,
        99.41217041015625
      ],
      "min": [
        -35.09821701049805,
        -99.66265869140625,
        -99.57723236083984
      ],
      "type": "VEC3"
    },
    {
      "bufferView": 2,
      "byteOffset": 1558644,
      "componentType": 5126,
      "count": 733,
      "max": [
        0.989447832107544,
        0.9910659193992615,
        0.997285783290863
      ],
      "min": [
        -1.0,
        -0.9969929456710815,
        -0.9967893958091736
      ],
      "type": "VEC3"
    },
    {
      "bufferView": 3,
      "byteOffset": 145856,
      "componentType": 5126,
      "count": 733,
      "max": [
        0.606267511844635,
        0.9999610185623169,
        0.9999997019767761,
        1.0
      ],
      "min": [
        -0.6071614623069763,
        -0.9999713897705078,
        -0.999999463558197,
        -1.0
      ],
      "type": "VEC4"
    },
    {
      "bufferView": 1,
      "byteOffset": 976256,
      "componentType": 5126,
      "count": 733,
      "max": [
        0.9985656142234802,
        0.9990234375
      ],
      "min": [
        0.0012207403779029846,
        0.0016785264015197754
      ],
      "type": "VEC2"
    },
    {
      "bufferView": 0,
      "byteOffset": 958536,
      "componentType": 5125,
      "count": 3072,
      "type": "SCALAR"
    },
    {
      "bufferView": 2,
      "byteOffset": 1567440,
      "componentType": 5126,
      "count": 7,
      "max": [
        -7.737323760986328,
        63.595211029052734,
        73.18367004394531
      ],
      "min": [
        -7.800756931304932,
        -63.60295486450195,
        -73.3899917602539
      ],
      "type": "VEC3"
    },
    {
      "bufferView": 2,
      "byteOffset": 1567524,
      "componentType": 5126,
      "count": 7,
      "max": [
        1.0,
        2.808048975566635e-06,
        -0.00043272465700283647
      ],
      "min": [
        0.9999999403953552,
        2.6410571081214584e-06,
        -0.0004328872018959373
      ],
      "type": "VEC3"
    },
    {
      "bufferView": 1,
      "byteOffset": 982120,
      "componentType": 5126,
      "count": 7,
      "max": [
        0.9988097548484802,
        0.6608783006668091
      ],
      "min": [
        0.9487594366073608,
        0.617664098739624
      ],
      "type": "VEC2"
    },
    {
      "bufferView": 0,
      "byteOffset": 970824,
      "componentType": 5125,
      "count": 18,
      "type": "SCALAR"
    },
    {
      "bufferView": 2,
      "byteOffset": 1567608,
      "componentType": 5126,
      "count": 3191,
      "max": [
        11.421049118041992,
        78.9986343383789,
        78.72734832763672
      ],
      "min": [
        -49.22731018066406,
        -78.98263549804688,
        -78.94808197021484
      ],
      "type": "VEC3"
    },
    {
      "bufferView": 2,
      "byteOffset": 1605900,
      "componentType": 5126,
      "count": 3191,
      "max": [
        0.9999998807907104,
        1.0,
        0.9999971389770508
      ],
      "min": [
        -0.9999998807907104,
        -1.0,
        -0.9999954104423523
      ],
      "type": "VEC3"
    },
    {
      "bufferView": 1,
      "byteOffset": 982176,
      "componentType": 5126,
      "count": 3191,
      "max": [
        0.9956358671188354,
        0.9960936307907104
      ],
      "min": [
        0.6428418755531311,
        0.6679586172103882
      ],
      "type": "VEC2"
    },
    {
      "bufferView": 0,
      "byteOffset": 970896,
      "componentType": 5125,
      "count": 11700,
      "type": "SCALAR"
    },
    {
      "bufferView": 2,
      "byteOffset": 1644192,
      "componentType": 5126,
      "count": 733,
      "max": [
        49.826107025146484,
        101.35636138916016,
        101.08563995361328
      ],
      "min": [
        -49.89573669433594,
        -101.34033966064453,
        -101.25348663330078
      ],
      "type": "VEC3"
    },
    {
      "bufferView": 2,
      "byteOffset": 1652988,
      "componentType": 5126,
      "count": 733,
      "max": [
        0.9999998807907104,
        0.9922033548355103,
        0.9972720742225647
      ],
      "min": [
        -0.9805741906166077,
        -0.9969890117645264,
        -0.996807336807251
      ],
      "type": "VEC3"
    },
    {
      "bufferView": 3,
      "byteOffset": 157584,
      "componentType": 5126,
      "count": 733,
      "max": [
        0.7295771837234497,
        0.9999917149543762,
        0.9999996423721313,
        1.0
      ],
      "min": [
        -0.7287834286689758,
        -0.9999960660934448,
        -0.9999998807907104,
        -1.0
      ],
      "type": "VEC4"
    },
    {
      "bufferView": 1,
      "byteOffset": 1007704,
      "componentType": 5126,
      "count": 733,
      "max": [
        0.9985656142234802,
        0.9990234375
      ],
      "min": [
        0.0012207403779029846,
        0.0016785264015197754
      ],
      "type": "VEC2"
    },
    {
      "bufferView": 0,
      "byteOffset": 1017696,
      "componentType": 5125,
      "count": 3072,
      "type": "SCALAR"
    },
    {
      "bufferView": 2,
      "byteOffset": 1661784,
      "componentType": 5126,
      "count": 7,
      "max": [
        11.074100494384766,
        64.6657485961914,
        74.4156265258789
      ],
      "min": [
        10.984063148498535,
        -64.67362213134766,
        -74.62541198730469
      ],
      "type": "VEC3"
    },
    {
      "bufferView": 2,
      "byteOffset": 1661868,
      "componentType": 5126,
      "count": 7,
      "max": [
        -0.9999998211860657,
        3.9175715755845886e-06,
        -0.0006040480802766979
      ],
      "min": [
        -0.9999998807907104,
        3.672626235129428e-06,
        -0.0006042534369044006
      ],
      "type": "VEC3"
    },
    {
      "bufferView": 1,
      "byteOffset": 1013568,
      "componentType": 5126,
      "count": 7,
      "max": [
        0.9988097548484802,
        0.6608783006668091
      ],
      "min": [
        0.9487594366073608,
        0.617664098739624
      ],
      "type": "VEC2"
    },
    {
      "bufferView": 0,
      "byteOffset": 1029984,
      "componentType": 5125,
      "count": 18,
      "type": "SCALAR"
    },
    {
      "bufferView": 2,
      "byteOffset": 1661952,
      "componentType": 5126,
      "count": 3191,
      "max": [
        49.22731399536133,
        78.9986343383789,
        78.72734069824219
      ],
      "min": [
        -11.421053886413574,
        -78.98263549804688,
        -78.94808959960938
      ],
      "type": "VEC3"
    },
    {
      "bufferView": 2,
      "byteOffset": 1700244,
      "componentType": 5126,
      "count": 3191,
      "max": [
        0.9999998807907104,
        1.0,
        0.9999971985816956
      ],
      "min": [
        -0.9999998807907104,
        -1.0,
        -0.9999953508377075
      ],
      "type": "VEC3"
    },
    {
      "bufferView": 1,
      "byteOffset": 1013624,
      "componentType": 5126,
      "count": 3191,
      "max": [
        0.9956358671188354,
        0.9960936307907104
      ],
      "min": [
        0.6428418755531311,
        0.6679586172103882
      ],
      "type": "VEC2"
    },
    {
      "bufferView": 0,
      "byteOffset": 1030056,
      "componentType": 5125,
      "count": 11700,
      "type": "SCALAR"
    },
    {
      "bufferView": 2,
      "byteOffset": 1738536,
      "componentType": 5126,
      "count": 733,
      "max": [
        49.89574432373047,
        101.35636138916016,
        101.08563995361328
      ],
      "min": [
        -49.826114654541016,
        -101.34033966064453,
        -101.25348663330078
      ],
      "type": "VEC3"
    },
    {
      "bufferView": 2,
      "byteOffset": 1747332,
      "componentType": 5126,
      "count": 733,
      "max": [
        0.9805742502212524,
        0.9922033548355103,
        0.9972720742225647
      ],
      "min": [
        -0.9999998807907104,
        -0.9969890713691711,
        -0.9968072772026062
      ],
      "type": "VEC3"
    },
    {
      "bufferView": 3,
      "byteOffset": 169312,
      "componentType": 5126,
      "count": 733,
      "max": [
        0.7287834286689758,
        0.9999917149543762,
        0.9999996423721313,
        1.0
      ],
      "min": [
        -0.7295768857002258,
        -0.9999960660934448,
        -0.9999998807907104,
        -1.0
      ],
      "type": "VEC4"
    },
    {
      "bufferView": 1,
      "byteOffset": 1039152,
      "componentType": 5126,
      "count": 733,
      "max": [
        0.9985656142234802,
        0.9990234375
      ],
      "min": [
        0.0012207403779029846,
        0.0016785264015197754
      ],
      "type": "VEC2"
    },
    {
      "bufferView": 0,
      "byteOffset": 1076856,
      "componentType": 5125,
      "count": 3072,
      "type": "SCALAR"
    },
    {
      "bufferView": 2,
      "byteOffset": 1756128,
      "componentType": 5126,
      "count": 7,
      "max": [
        -10.98405647277832,
        64.6657485961914,
        74.4156265258789
      ],
      "min": [
        -11.07410717010498,
        -64.67362213134766,
        -74.62541198730469
      ],
      "type": "VEC3"
    },
    {
      "bufferView": 2,
      "byteOffset": 1756212,
      "componentType": 5126,
      "count": 7,
      "max": [
        0.9999998807907104,
        3.91802905141958e-06,
        -0.00060412532184273
      ],
      "min": [
        0.9999998807907104,
        3.6758972328243544e-06,
        -0.0006043616449460387
      ],
      "type": "VEC3"
    },
    {
      "bufferView": 1,
      "byteOffset": 1045016,
      "componentType": 5126,
      "count": 7,
      "max": [
        0.9988097548484802,
        0.6608783006668091
      ],
      "min": [
        0.9487594366073608,
        0.617664098739624
      ],
      "type": "VEC2"
    },
    {
      "bufferView": 0,
      "byteOffset": 1089144,
      "componentType": 5125,
      "count": 18,
      "type": "SCALAR"
    }
  ],
  "asset": {
    "extras": {
      "author": "SIU Car Garage (https://sketchfab.com/Game_mode)",
      "license": "CC-BY-4.0 (http://creativecommons.org/licenses/by/4.0/)",
      "source": "https://sketchfab.com/3d-models/2023-ares-panther-progettouno-5aafdfb534854f79a5ee5ec75028f60e",
      "title": "2023 Ares Panther ProgettoUno"
    },
    "generator": "Sketchfab-17.14.0",
    "version": "2.0"
  },
  "bufferViews": [
    {
      "buffer": 0,
      "byteLength": 1089216,
      "name": "floatBufferViews",
      "target": 34963
    },
    {
      "buffer": 0,
      "byteLength": 1045072,
      "byteOffset": 1089216,
      "byteStride": 8,
      "name": "floatBufferViews",
      "target": 34962
    },
    {
      "buffer": 0,
      "byteLength": 1756296,
      "byteOffset": 2134288,
      "byteStride": 12,
      "name": "floatBufferViews",
      "target": 34962
    },
    {
      "buffer": 0,
      "byteLength": 181040,
      "byteOffset": 3890584,
      "byteStride": 16,
      "name": "floatBufferViews",
      "target": 34962
    }
  ],
  "buffers": [
    {
      "byteLength": 4071624,
      "uri": "scene.bin"
    }
  ],
  "extensionsUsed": [
    "KHR_materials_clearcoat",
    "KHR_materials_specular",
    "KHR_materials_transmission"
  ],
  "images": [
    {
      "uri": "textures/Livery_baseColor.png"
    },
    {
      "uri": "textures/MISC_LOGO_baseColor.png"
    },
    {
      "uri": "textures/CARBON_baseColor.png"
    },
    {
      "uri": "textures/GRILL2_baseColor.png"
    },
    {
      "uri": "textures/GRILL2_normal.png"
    },
    {
      "uri": "textures/chassis_baseColor.png"
    },
    {
      "uri": "textures/chassis_normal.png"
    },
    {
      "uri": "textures/PLATE_baseColor.png"
    },
    {
      "uri": "textures/GRILL_1_baseColor.png"
    },
    {
      "uri": "textures/GRILL_1_normal.png"
    },
    {
      "uri": "textures/WINDOWMASK_baseColor.png"
    },
    {
      "uri": "textures/caliber_baseColor.png"
    },
    {
      "uri": "textures/caliber_normal.png"
    },
    {
      "uri": "textures/DISC_baseColor.png"
    },
    {
      "uri": "textures/material_baseColor.png"
    },
    {
      "uri": "textures/TIRE_baseColor.png"
    },
    {
      "uri": "textures/TIRE_normal.png"
    }
  ],
  "materials": [
    {
      "doubleSided": true,
      "extensions": {
        "KHR_materials_clearcoat": {
          "clearcoatFactor": 0.8091453231095561,
          "clearcoatRoughnessFactor": 0.09600029257232022
        },
        "KHR_materials_specular": {
          "specularColorFactor": [
            1.0,
            1.0,
            1.0
          ],
          "specularFactor": 0.0
        }
      },
      "name": "Livery",
      "pbrMetallicRoughness": {
        "baseColorFactor": [
          0.28495324938133143,
          0.28495324938133143,
          0.28495324938133143,
          1.0
        ],
        "baseColorTexture": {
          "index": 0
        },
        "metallicFactor": 0.3946678694639831,
        "roughnessFactor": 0.278857992710073
      }
    },
    {
      "alphaMode": "BLEND",
      "doubleSided": true,
      "extensions": {
        "KHR_materials_clearcoat": {
          "clearcoatFactor": 1.0,
          "clearcoatRoughnessFactor": 0.04
        },
        "KHR_materials_specular": {
          "specularColorFactor": [
            1.0,
            1.0,
            1.0
          ],
          "specularFactor": 0.12647657592861233
        },
        "KHR_materials_transmission": {
          "transmissionFactor": 0.06285428679401694
        }
      },
      "name": "window",
      "pbrMetallicRoughness": {
        "baseColorFactor": [
          0.0,
          0.0,
          0.0,
          0.937145713205983
        ],
        "metallicFactor": 0.0
      }
    },
    {
      "doubleSided": true,
      "extensions": {
        "KHR_materials_clearcoat": {
          "clearcoatFactor": 1.0,
          "clearcoatRoughnessFactor": 0.04
        }
      },
      "name": "MISC_LOGO",
      "pbrMetallicRoughness": {
        "baseColorFactor": [
          0.44952517950530896,
          0.44952517950530896,
          0.44952517950530896,
          1.0
        ],
        "baseColorTexture": {
          "index": 1
        },
        "metallicFactor": 0.0,
        "roughnessFactor": 0.8211145618000169
      }
    },
    {
      "alphaMode": "BLEND",
      "doubleSided": true,
      "extensions": {
        "KHR_materials_clearcoat": {
          "clearcoatFactor": 1.0,
          "clearcoatRoughnessFactor": 0.04
        },
        "KHR_materials_specular": {
          "specularColorFactor": [
            1.0,
            1.0,
            1.0
          ],
          "specularFactor": 0.2544769660250393
        },
        "KHR_materials_transmission": {
          "transmissionFactor": 0.6906657239336349
        }
      },
      "name": "LIGHTGLASS",
      "pbrMetallicRoughness": {
        "baseColorFactor": [
          0.0,
          0.0,
          0.0,
          0.30933427606636515
        ],
        "metallicFactor": 0.0,
        "roughnessFactor": 0.8211145618000169
      }
    },
    {
      "doubleSided": true,
      "extensions": {
        "KHR_materials_clearcoat": {
          "clearcoatFactor": 0.43123940949153367,
          "clearcoatRoughnessFactor": 0.04
        },
        "KHR_materials_specular": {
          "specularColorFactor": [
            1.0,
            1.0,
            1.0
          ],
          "specularFactor": 0.10819080591483707
        }
      },
      "name": "CARBON",
      "pbrMetallicRoughness": {
        "baseColorTexture": {
          "index": 2
        },
        "metallicFactor": 0.0,
        "roughnessFactor": 0.8211145618000169
      }
    },
    {
      "doubleSided": true,
      "extensions": {
        "KHR_materials_specular": {
          "specularColorFactor": [
            1.0,
            1.0,
            1.0
          ],
          "specularFactor": 0.0
        }
      },
      "name": "GRILL2",
      "normalTexture": {
        "index": 4
      },
      "pbrMetallicRoughness": {
        "baseColorTexture": {
          "index": 3
        },
        "metallicFactor": 0.0,
        "roughnessFactor": 0.8211145618000169
      }
    },
    {
      "doubleSided": true,
      "extensions": {
        "KHR_materials_specular": {
          "specularColorFactor": [
            1.0,
            1.0,
            1.0
          ],
          "specularFactor": 0.0
        }
      },
      "name": "chassis",
      "normalTexture": {
        "index": 6
      },
      "pbrMetallicRoughness": {
        "baseColorFactor": [
          0.15085760261364606,
          0.15085760261364606,
          0.15085760261364606,
          1.0
        ],
        "baseColorTexture": {
          "index": 5
        },
        "metallicFactor": 0.0,
        "roughnessFactor": 0.8211145618000169
      }
    },
    {
      "doubleSided": true,
      "extensions": {
        "KHR_materials_specular": {
          "specularColorFactor": [
            1.0,
            1.0,
            1.0
          ],
          "specularFactor": 0.0
        }
      },
      "name": "PLATE",
      "pbrMetallicRoughness": {
        "baseColorTexture": {
          "index": 7
        },
        "metallicFactor": 0.0,
        "roughnessFactor": 0.8211145618000169
      }
    },
    {
      "doubleSided": true,
      "extensions": {
        "KHR_materials_specular": {
          "specularColorFactor": [
            1.0,
            1.0,
            1.0
          ],
          "specularFactor": 0.0
        }
      },
      "name": "GRILL_1",
      "normalTexture": {
        "index": 9
      },
      "pbrMetallicRoughness": {
        "baseColorTexture": {
          "index": 8
        },
        "metallicFactor": 0.0,
        "roughnessFactor": 0.8211145618000169
      }
    },
    {
      "alphaCutoff": 0.41295363947775837,
      "alphaMode": "MASK",
      "doubleSided": true,
      "extensions": {
        "KHR_materials_specular": {
          "specularColorFactor": [
            1.0,
            1.0,
            1.0
          ],
          "specularFactor": 0.0
        }
      },
      "name": "WINDOWMASK",
      "pbrMetallicRoughness": {
        "baseColorTexture": {
          "index": 10
        },
        "metallicFactor": 0.0,
        "roughnessFactor": 0.8211145618000169
      }
    },
    {
      "doubleSided": true,
      "extensions": {
        "KHR_materials_specular": {
          "specularColorFactor": [
            1.0,
            1.0,
            1.0
          ],
          "specularFactor": 0.047238239202252806
        }
      },
      "name": "caliber",
      "normalTexture": {
        "index": 12,
        "scale": 0.5287635162316685
      },
      "pbrMetallicRoughness": {
        "baseColorFactor": [
          0.6262876229718033,
          0.6262876229718033,
          0.6262876229718033,
          1.0
        ],
        "baseColorTexture": {
          "index": 11
        },
        "metallicFactor": 0.1386670892711292,
        "roughnessFactor": 0.5043824895466348
      }
    },
    {
      "doubleSided": true,
      "name": "caliberlogo",
      "pbrMetallicRoughness": {
        "baseColorFactor": [
          0.8,
          0.8,
          0.8,
          1.0
        ],
        "metallicFactor": 0.0,
        "roughnessFactor": 0.8211145618000169
      }
    },
    {
      "doubleSided": true,
      "extensions": {
        "KHR_materials_specular": {
          "specularColorFactor": [
            1.0,
            1.0,
            1.0
          ],
          "specularFactor": 0.0
        }
      },
      "name": "DISC",
      "pbrMetallicRoughness": {
        "baseColorFactor": [
          0.5348587729029269,
          0.5348587729029269,
          0.5348587729029269,
          1.0
        ],
        "baseColorTexture": {
          "index": 13
        },
        "metallicFactor": 0.5897160829442527,
        "roughnessFactor": 0.08990503590106179
      }
    },
    {
      "doubleSided": true,
      "extensions": {
        "KHR_materials_specular": {
          "specularColorFactor": [
            1.0,
            1.0,
            1.0
          ],
          "specularFactor": 0.0
        }
      },
      "name": "MISC_2",
      "pbrMetallicRoughness": {
        "baseColorFactor": [
          0.6750496763418707,
          0.6750496763418707,
          0.6750496763418707,
          1.0
        ],
        "baseColorTexture": {
          "index": 1
        },
        "metallicFactor": 0.0,
        "roughnessFactor": 0.8211145618000169
      }
    },
    {
      "doubleSided": true,
      "extensions": {
        "KHR_materials_clearcoat": {
          "clearcoatFactor": 0.4678109495190842,
          "clearcoatRoughnessFactor": 0.04
        },
        "KHR_materials_specular": {
          "specularColorFactor": [
            1.0,
            1.0,
            1.0
          ],
          "specularFactor": 0.05333349587351123
        }
      },
      "name": "material",
      "pbrMetallicRoughness": {
        "baseColorFactor": [
          0.3702868427789494,
          0.3702868427789494,
          0.3702868427789494,
          1.0
        ],
        "baseColorTexture": {
          "index": 14
        },
        "metallicFactor": 0.5775255696017358,
        "roughnessFactor": 0.1569528592849045
      }
    },
    {
      "doubleSided": true,
      "extensions": {
        "KHR_materials_specular": {
          "specularColorFactor": [
            1.0,
            1.0,
            1.0
          ],
          "specularFactor": 0.03504772585973595
        }
      },
      "name": "TIRE",
      "normalTexture": {
        "index": 16
      },
      "pbrMetallicRoughness": {
        "baseColorTexture": {
          "index": 15
        },
        "metallicFactor": 0.0,
        "roughnessFactor": 0.4712364837683315
      }
    },
    {
      "doubleSided": true,
      "extensions": {
        "KHR_materials_specular": {
          "specularColorFactor": [
            1.0,
            1.0,
            1.0
          ],
          "specularFactor": 0.0
        }
      },
      "name": "rim_int",
      "pbrMetallicRoughness": {
        "baseColorTexture": {
          "index": 1
        },
        "metallicFactor": 0.0,
        "roughnessFactor": 0.8211145618000169
      }
    }
  ],
  "meshes": [
    {
      "name": "BODY_Livery_0",
      "primitives": [
        {
          "attributes": {
            "NORMAL": 1,
            "POSITION": 0,
            "TEXCOORD_0": 2,
            "TEXCOORD_1": 3
          },
          "indices": 4,
          "material": 0,
          "mode": 4
        }
      ]
    },
    {
      "name": "BODY_window_0",
      "primitives": [
        {
          "attributes": {
            "NORMAL": 6,
            "POSITION": 5,
            "TEXCOORD_0": 7,
            "TEXCOORD_1": 8
          },
          "indices": 9,
          "material": 1,
          "mode": 4
        }
      ]
    },
    {
      "name": "BODY_MISC_LOGO_0",
      "primitives": [
        {
          "attributes": {
            "NORMAL": 11,
            "POSITION": 10,
            "TEXCOORD_0": 12,
            "TEXCOORD_1": 13
          },
          "indices": 14,
          "material": 2,
          "mode": 4
        }
      ]
    },
    {
      "name": "BODY_LIGHTGLASS_0",
      "primitives": [
        {
          "attributes": {
            "NORMAL": 16,
            "POSITION": 15,
            "TEXCOORD_0": 17,
            "TEXCOORD_1": 18
          },
          "indices": 19,
          "material": 3,
          "mode": 4
        }
      ]
    },
    {
      "name": "BODY_CARBON_0",
      "primitives": [
        {
          "attributes": {
            "NORMAL": 21,
            "POSITION": 20,
            "TEXCOORD_0": 22,
            "TEXCOORD_1": 23
          },
          "indices": 24,
          "material": 4,
          "mode": 4
        }
      ]
    },
    {
      "name": "BODY_GRILL2_0",
      "primitives": [
        {
          "attributes": {
            "NORMAL": 26,
            "POSITION": 25,
            "TANGENT": 27,
            "TEXCOORD_0": 28,
            "TEXCOORD_1": 29
          },
          "indices": 30,
          "material": 5,
          "mode": 4
        }
      ]
    },
    {
      "name": "BODY_chassis_0",
      "primitives": [
        {
          "attributes": {
            "NORMAL": 32,
            "POSITION": 31,
            "TANGENT": 33,
            "TEXCOORD_0": 34,
            "TEXCOORD_1": 35
          },
          "indices": 36,
          "material": 6,
          "mode": 4
        }
      ]
    },
    {
      "name": "BODY_PLATE_0",
      "primitives": [
        {
          "attributes": {
            "NORMAL": 38,
            "POSITION": 37,
            "TEXCOORD_0": 39,
            "TEXCOORD_1": 40
          },
          "indices": 41,
          "material": 7,
          "mode": 4
        }
      ]
    },
    {
      "name": "BODY_GRILL_1_0",
      "primitives": [
        {
          "attributes": {
            "NORMAL": 43,
            "POSITION": 42,
            "TANGENT": 44,
            "TEXCOORD_0": 45,
            "TEXCOORD_1": 46
          },
          "indices": 47,
          "material": 8,
          "mode": 4
        }
      ]
    },
    {
      "name": "BODY_WINDOWMASK_0",
      "primitives": [
        {
          "attributes": {
            "NORMAL": 49,
            "POSITION": 48,
            "TEXCOORD_0": 50,
            "TEXCOORD_1": 51
          },
          "indices": 52,
          "material": 9,
          "mode": 4
        }
      ]
    },
    {
      "name": "DISC_FL_caliber_0",
      "primitives": [
        {
          "attributes": {
            "NORMAL": 54,
            "POSITION": 53,
            "TANGENT": 55,
            "TEXCOORD_0": 56,
            "TEXCOORD_1": 57
          },
          "indices": 58,
          "material": 10,
          "mode": 4
        }
      ]
    },
    {
      "name": "DISC_FL_caliberlogo_0",
      "primitives": [
        {
          "attributes": {
            "NORMAL": 60,
            "POSITION": 59,
            "TEXCOORD_0": 61,
            "TEXCOORD_1": 62
          },
          "indices": 63,
          "material": 11,
          "mode": 4
        }
      ]
    },
    {
      "name": "DISC_FL_DISC_0",
      "primitives": [
        {
          "attributes": {
            "NORMAL": 65,
            "POSITION": 64,
            "TEXCOORD_0": 66,
            "TEXCOORD_1": 67
          },
          "indices": 68,
          "material": 12,
          "mode": 4
        }
      ]
    },
    {
      "name": "DISC_FR_caliber_0",
      "primitives": [
        {
          "attributes": {
            "NORMAL": 70,
            "POSITION": 69,
            "TANGENT": 71,
            "TEXCOORD_0": 72,
            "TEXCOORD_1": 73
          },
          "indices": 74,
          "material": 10,
          "mode": 4
        }
      ]
    },
    {
      "name": "DISC_FR_caliberlogo_0",
      "primitives": [
        {
          "attributes": {
            "NORMAL": 76,
            "POSITION": 75,
            "TEXCOORD_0": 77,
            "TEXCOORD_1": 78
          },
          "indices": 79,
          "material": 11,
          "mode": 4
        }
      ]
    },
    {
      "name": "DISC_FR_DISC_0",
      "primitives": [
        {
          "attributes": {
            "NORMAL": 81,
            "POSITION": 80,
            "TEXCOORD_0": 82,
            "TEXCOORD_1": 83
          },
          "indices": 84,
          "material": 12,
          "mode": 4
        }
      ]
    },
    {
      "name": "DISC_RL_caliber_0",
      "primitives": [
        {
          "attributes": {
            "NORMAL": 86,
            "POSITION": 85,
            "TANGENT": 87,
            "TEXCOORD_0": 88,
            "TEXCOORD_1": 89
          },
          "indices": 90,
          "material": 10,
          "mode": 4
        }
      ]
    },
    {
      "name": "DISC_RL_caliberlogo_0",
      "primitives": [
        {
          "attributes": {
            "NORMAL": 92,
            "POSITION": 91,
            "TEXCOORD_0": 93,
            "TEXCOORD_1": 94
          },
          "indices": 95,
          "material": 11,
          "mode": 4
        }
      ]
    },
    {
      "name": "DISC_RL_DISC_0",
      "primitives": [
        {
          "attributes": {
            "NORMAL": 97,
            "POSITION": 96,
            "TEXCOORD_0": 98,
            "TEXCOORD_1": 99
          },
          "indices": 100,
          "material": 12,
          "mode": 4
        }
      ]
    },
    {
      "name": "DISC_RR_caliber_0",
      "primitives": [
        {
          "attributes": {
            "NORMAL": 102,
            "POSITION": 101,
            "TANGENT": 103,
            "TEXCOORD_0": 104,
            "TEXCOORD_1": 105
          },
          "indices": 106,
          "material": 10,
          "mode": 4
        }
      ]
    },
    {
      "name": "DISC_RR_caliberlogo_0",
      "primitives": [
        {
          "attributes": {
            "NORMAL": 108,
            "POSITION": 107,
            "TEXCOORD_0": 109,
            "TEXCOORD_1": 110
          },
          "indices": 111,
          "material": 11,
          "mode": 4
        }
      ]
    },
    {
      "name": "DISC_RR_DISC_0",
      "primitives": [
        {
          "attributes": {
            "NORMAL": 113,
            "POSITION": 112,
            "TEXCOORD_0": 114,
            "TEXCOORD_1": 115
          },
          "indices": 116,
          "material": 12,
          "mode": 4
        }
      ]
    },
    {
      "name": "SUB_MISC_2_0",
      "primitives": [
        {
          "attributes": {
            "NORMAL": 118,
            "POSITION": 117,
            "TEXCOORD_0": 119,
            "TEXCOORD_1": 120
          },
          "indices": 121,
          "material": 13,
          "mode": 4
        }
      ]
    },
    {
      "name": "TIRE_FL_rim_0",
      "primitives": [
        {
          "attributes": {
            "NORMAL": 123,
            "POSITION": 122,
            "TEXCOORD_0": 124
          },
          "indices": 125,
          "material": 14,
          "mode": 4
        }
      ]
    },
    {
      "name": "TIRE_FL_TIRE_0",
      "primitives": [
        {
          "attributes": {
            "NORMAL": 127,
            "POSITION": 126,
            "TANGENT": 128,
            "TEXCOORD_0": 129
          },
          "indices": 130,
          "material": 15,
          "mode": 4
        }
      ]
    },
    {
      "name": "TIRE_FL_rim_int_0",
      "primitives": [
        {
          "attributes": {
            "NORMAL": 132,
            "POSITION": 131,
            "TEXCOORD_0": 133
          },
          "indices": 134,
          "material": 16,
          "mode": 4
        }
      ]
    },
    {
      "name": "TIRE_FR_rim_0",
      "primitives": [
        {
          "attributes": {
            "NORMAL": 136,
            "POSITION": 135,
            "TEXCOORD_0": 137
          },
          "indices": 138,
          "material": 14,
          "mode": 4
        }
      ]
    },
    {
      "name": "TIRE_FR_TIRE_0",
      "primitives": [
        {
          "attributes": {
            "NORMAL": 140,
            "POSITION": 139,
            "TANGENT": 141,
            "TEXCOORD_0": 142
          },
          "indices": 143,
          "material": 15,
          "mode": 4
        }
      ]
    },
    {
      "name": "TIRE_FR_rim_int_0",
      "primitives": [
        {
          "attributes": {
            "NORMAL": 145,
            "POSITION": 144,
            "TEXCOORD_0": 146
          },
          "indices": 147,
          "material": 16,
          "mode": 4
        }
      ]
    },
    {
      "name": "TIRE_RL_rim_0",
      "primitives": [
        {
          "attributes": {
            "NORMAL": 149,
            "POSITION": 148,
            "TEXCOORD_0": 150
          },
          "indices": 151,
          "material": 14,
          "mode": 4
        }
      ]
    },
    {
      "name": "TIRE_RL_TIRE_0",
      "primitives": [
        {
          "attributes": {
            "NORMAL": 153,
            "POSITION": 152,
            "TANGENT": 154,
            "TEXCOORD_0": 155
          },
          "indices": 156,
          "material": 15,
          "mode": 4
        }
      ]
    },
    {
      "name": "TIRE_RL_rim_int_0",
      "primitives": [
        {
          "attributes": {
            "NORMAL": 158,
            "POSITION": 157,
            "TEXCOORD_0": 159
          },
          "indices": 160,
          "material": 16,
          "mode": 4
        }
      ]
    },
    {
      "name": "TIRE_RR_rim_0",
      "primitives": [
        {
          "attributes": {
            "NORMAL": 162,
            "POSITION": 161,
            "TEXCOORD_0": 163
          },
          "indices": 164,
          "material": 14,
          "mode": 4
        }
      ]
    },
    {
      "name": "TIRE_RR_TIRE_0",
      "primitives": [
        {
          "attributes": {
            "NORMAL": 166,
            "POSITION": 165,
            "TANGENT": 167,
            "TEXCOORD_0": 168
          },
          "indices": 169,
          "material": 15,
          "mode": 4
        }
      ]
    },
    {
      "name": "TIRE_RR_rim_int_0",
      "primitives": [
        {
          "attributes": {
            "NORMAL": 171,
            "POSITION": 170,
            "TEXCOORD_0": 172
          },
          "indices": 173,
          "material": 16,
          "mode": 4
        }
      ]
    }
  ],
  "nodes": [
    {
      "children": [
        1
      ],
      "matrix": [
        1.0,
        0.0,
        0.0,
        0.0,
        0.0,
        2.220446049250313e-16,
        -1.0,
        0.0,
        0.0,
        1.0,
        2.220446049250313e-16,
        0.0,
        0.0,
        0.0,
        0.0,
        1.0
      ],
      "name": "Sketchfab_model"
    },
    {
      "children": [
        2
      ],
      "matrix": [
        0.009999999776482582,
        0.0,
        0.0,
        0.0,
        0.0,
        0.0,
        0.009999999776482582,
        0.0,
        0.0,
        -0.009999999776482582,
        0.0,
        0.0,
        0.0,
        0.0,
        0.0,
        1.0
      ],
      "name": "56e4ad9a269d44d8bd14d8bc6cc71690.fbx"
    },
    {
      "children": [
        3,
        14,
        18,
        22,
        26,
        30,
        32,
        36,
        40,
        44
      ],
      "name": "RootNode"
    },
    {
      "children": [
        4,
        5,
        6,
        7,
        8,
        9,
        10,
        11,
        12,
        13
      ],
      "name": "BODY"
    },
    {
      "mesh": 0,
      "name": "BODY_Livery_0"
    },
    {
      "mesh": 1,
      "name": "BODY_window_0"
    },
    {
      "mesh": 2,
      "name": "BODY_MISC_LOGO_0"
    },
    {
      "mesh": 3,
      "name": "BODY_LIGHTGLASS_0"
    },
    {
      "mesh": 4,
      "name": "BODY_CARBON_0"
    },
    {
      "mesh": 5,
      "name": "BODY_GRILL2_0"
    },
    {
      "mesh": 6,
      "name": "BODY_chassis_0"
    },
    {
      "mesh": 7,
      "name": "BODY_PLATE_0"
    },
    {
      "mesh": 8,
      "name": "BODY_GRILL_1_0"
    },
    {
      "mesh": 9,
      "name": "BODY_WINDOWMASK_0"
    },
    {
      "children": [
        15,
        16,
        17
      ],
      "matrix": [
        1.0,
        0.0,
        0.0,
        0.0,
        0.0,
        1.0,
        0.0,
        0.0,
        0.0,
        0.0,
        1.0,
        0.0,
        -233.239013671875,
        98.8185043334961,
        -360.99639892578125,
        1.0
      ],
      "name": "DISC_FL"
    },
    {
      "mesh": 10,
      "name": "DISC_FL_caliber_0"
    },
    {
      "mesh": 11,
      "name": "DISC_FL_caliberlogo_0"
    },
    {
      "mesh": 12,
      "name": "DISC_FL_DISC_0"
    },
    {
      "children": [
        19,
        20,
        21
      ],
      "matrix": [
        1.0,
        0.0,
        0.0,
        0.0,
        0.0,
        1.0,
        0.0,
        0.0,
        0.0,
        0.0,
        1.0,
        0.0,
        233.23941040039063,
        98.8185043334961,
        -360.99639892578125,
        1.0
      ],
      "name": "DISC_FR"
    },
    {
      "mesh": 13,
      "name": "DISC_FR_caliber_0"
    },
    {
      "mesh": 14,
      "name": "DISC_FR_caliberlogo_0"
    },
    {
      "mesh": 15,
      "name": "DISC_FR_DISC_0"
    },
    {
      "children": [
        23,
        24,
        25
      ],
      "matrix": [
        1.0,
        0.0,
        0.0,
        0.0,
        0.0,
        1.0,
        0.0,
        0.0,
        0.0,
        0.0,
        1.0,
        0.0,
        -229.32798767089844,
        100.26359558105469,
        393.84912109375,
        1.0
      ],
      "name": "DISC_RL"
    },
    {
      "mesh": 16,
      "name": "DISC_RL_caliber_0"
    },
    {
      "mesh": 17,
      "name": "DISC_RL_caliberlogo_0"
    },
    {
      "mesh": 18,
      "name": "DISC_RL_DISC_0"
    },
    {
      "children": [
        27,
        28,
        29
      ],
      "matrix": [
        1.0,
        0.0,
        0.0,
        0.0,
        0.0,
        1.0,
        0.0,
        0.0,
        0.0,
        0.0,
        1.0,
        0.0,
        229.32806396484375,
        100.26359558105469,
        393.84912109375,
        1.0
      ],
      "name": "DISC_RR"
    },
    {
      "mesh": 19,
      "name": "DISC_RR_caliber_0"
    },
    {
      "mesh": 20,
      "name": "DISC_RR_caliberlogo_0"
    },
    {
      "mesh": 21,
      "name": "DISC_RR_DISC_0"
    },
    {
      "children": [
        31
      ],
      "name": "SUB"
    },
    {
      "mesh": 22,
      "name": "SUB_MISC_2_0"
    },
    {
      "children": [
        33,
        34,
        35
      ],
      "matrix": [
        1.0,
        0.0,
        0.0,
        0.0,
        0.0,
        1.0,
        0.0,
        0.0,
        0.0,
        0.0,
        1.0,
        0.0,
        -242.47000122070313,
        98.8185043334961,
        -360.99639892578125,
        1.0
      ],
      "name": "TIRE_FL"
    },
    {
      "mesh": 23,
      "name": "TIRE_FL_rim_0"
    },
    {
      "mesh": 24,
      "name": "TIRE_FL_TIRE_0"
    },
    {
      "mesh": 25,
      "name": "TIRE_FL_rim_int_0"
    },
    {
      "children": [
        37,
        38,
        39
      ],
      "matrix": [
        1.0,
        0.0,
        0.0,
        0.0,
        0.0,
        1.0,
        0.0,
        0.0,
        0.0,
        0.0,
        1.0,
        0.0,
        242.47047424316406,
        98.8185043334961,
        -360.99639892578125,
        1.0
      ],
      "name": "TIRE_FR"
    },
    {
      "mesh": 26,
      "name": "TIRE_FR_rim_0"
    },
    {
      "mesh": 27,
      "name": "TIRE_FR_TIRE_0"
    },
    {
      "mesh": 28,
      "name": "TIRE_FR_rim_int_0"
    },
    {
      "children": [
        41,
        42,
        43
      ],
      "matrix": [
        1.0,
        0.0,
        0.0,
        0.0,
        0.0,
        1.0,
        0.0,
        0.0,
        0.0,
        0.0,
        1.0,
        0.0,
        -230.7159881591797,
        100.26359558105469,
        393.84912109375,
        1.0
      ],
      "name": "TIRE_RL"
    },
    {
      "mesh": 29,
      "name": "TIRE_RL_rim_0"
    },
    {
      "mesh": 30,
      "name": "TIRE_RL_TIRE_0"
    },
    {
      "mesh": 31,
      "name": "TIRE_RL_rim_int_0"
    },
    {
      "children": [
        45,
        46,
        47
      ],
      "matrix": [
        1.0,
        0.0,
        0.0,
        0.0,
        0.0,
        1.0,
        0.0,
        0.0,
        0.0,
        0.0,
        1.0,
        0.0,
        230.7161865234375,
        100.26359558105469,
        393.84912109375,
        1.0
      ],
      "name": "TIRE_RR"
    },
    {
      "mesh": 32,
      "name": "TIRE_RR_rim_0"
    },
    {
      "mesh": 33,
      "name": "TIRE_RR_TIRE_0"
    },
    {
      "mesh": 34,
      "name": "TIRE_RR_rim_int_0"
    }
  ],
  "samplers": [
    {
      "magFilter": 9729,
      "minFilter": 9987,
      "wrapS": 10497,
      "wrapT": 10497
    }
  ],
  "scene": 0,
  "scenes": [
    {
      "name": "Sketchfab_Scene",
      "nodes": [
        0
      ]
    }
  ],
  "textures": [
    {
      "sampler": 0,
      "source": 0
    },
    {
      "sampler": 0,
      "source": 1
    },
    {
      "sampler": 0,
      "source": 2
    },
    {
      "sampler": 0,
      "source": 3
    },
    {
      "sampler": 0,
      "source": 4
    },
    {
      "sampler": 0,
      "source": 5
    },
    {
      "sampler": 0,
      "source": 6
    },
    {
      "sampler": 0,
      "source": 7
    },
    {
      "sampler": 0,
      "source": 8
    },
    {
      "sampler": 0,
      "source": 9
    },
    {
      "sampler": 0,
      "source": 10
    },
    {
      "sampler": 0,
      "source": 11
    },
    {
      "sampler": 0,
      "source": 12
    },
    {
      "sampler": 0,
      "source": 13
    },
    {
      "sampler": 0,
      "source": 14
    },
    {
      "sampler": 0,
      "source": 15
    },
    {
      "sampler": 0,
      "source": 16
    }
  ]
}
